<?xml version="1.0" encoding="utf-8"?>
<!-- Generator: Adobe Illustrator 25.2.0, SVG Export Plug-In . SVG Version: 6.00 Build 0)  -->
<svg version="1.2" baseProfile="tiny" id="katman_1"
	 xmlns="http://www.w3.org/2000/svg" xmlns:xlink="http://www.w3.org/1999/xlink" x="0px" y="0px" viewBox="0 0 1552 1237.3"
	 overflow="visible" xml:space="preserve">
<g>
	<path fill="#742B26" d="M860.5,274.9c0,0,13.5-11.4,7.7-36.8c0,0,2.7,15.1-18.3,30.4L860.5,274.9L860.5,274.9z"/>
	<path fill="#742B26" d="M773.4,259c-206.7,0-374.2,167.5-374.2,374.2c0,21.8,1.9,43.1,5.4,63.8c243.9-42.3,494.1-43.9,738.1-3.3
		c3.2-19.7,4.9-39.9,4.9-60.5C1147.6,426.5,980.1,259,773.4,259L773.4,259z M491.5,879.3c68.6,78.5,169.4,128.1,281.9,128.1
		s213.3-49.6,281.9-128.2C868.8,852,678.1,852,491.5,879.3L491.5,879.3z"/>
	<path fill="#DD8E33" d="M1021,565.6c-5.2-19.9-12.5-37.4-20.5-52.3c-16.1-30-34.4-49.9-47.4-62.3c-11.8-11.2-19.5-16.7-20.9-17.8
		c29.6,24.3,53.5,55.3,69.1,89.8c15.7,34.6,22.8,72.6,21.1,109.9c-0.6,14.8-2.7,29.4-6,43.7c2.5,0.3,5,0.5,7.4,0.8
		c3.3-15.7,4.9-31.1,5.1-45.9C1029.3,607.6,1026.2,585.4,1021,565.6L1021,565.6z M543,519.3c-17.2,34.2-25.9,72.7-25.5,110.8
		c0.1,16.7,2,33.4,5.6,49.6c2.5-0.3,5.1-0.6,7.6-0.8c-4.1-17.2-6.3-34.1-6.7-50.4c-0.6-23.1,2.2-44.7,7-64.1
		c4.8-19.4,11.7-36.6,19.2-51.4c15.2-29.7,32.7-49.7,45.2-62.4c12.7-12.6,20.4-18.3,20.3-18.4C585.4,455,560.1,485,543,519.3
		L543,519.3z"/>
	<path fill="#742B26" d="M307.5,925c0,0,103.8-18.5,182.1,19.2c-12.1-32-28-60.2-28-60.2S364.7,896.7,307.5,925L307.5,925z"/>
	<path fill="#742B26" d="M1242.7,925c0,0-103.8-18.5-182.1,19.2c12.1-32,28-60.2,28-60.2S1185.5,896.7,1242.7,925L1242.7,925z"/>
	<path fill="#DD8E33" d="M861.7,375.8l20.1-69.7L856.2,374C858,374.6,859.9,375.2,861.7,375.8L861.7,375.8z M846.3,296.5l-18.1,70.3
		c1.9,0.4,3.7,0.8,5.6,1.2L846.3,296.5L846.3,296.5z M791.2,289.1l-6.6,72.3c1.9,0.1,3.8,0.2,5.7,0.3L791.2,289.1L791.2,289.1z
		 M810.1,290.6l-10.6,71.8c1.9,0.2,3.8,0.4,5.7,0.6L810.1,290.6L810.1,290.6z M827.7,293l-14.2,71.2c1.9,0.3,3.8,0.6,5.7,0.9
		L827.7,293L827.7,293z M847.4,371.4l16.2-70.7l-21.7,69.2C843.7,370.4,845.5,370.9,847.4,371.4L847.4,371.4z M925.9,407.9
		l37.6-62.1l-42.4,59C922.7,405.8,924.3,406.9,925.9,407.9L925.9,407.9z M874.8,380.7l23.6-68.6l-29,66.5
		C871.3,379.3,873,380,874.8,380.7L874.8,380.7z M914.1,400.4l34.4-64l-39.3,61C910.8,398.4,912.5,399.4,914.1,400.4L914.1,400.4z
		 M901.1,393l30.8-65.8L896,390.3C897.7,391.2,899.4,392.1,901.1,393L901.1,393z M888.5,386.7l27.4-67.2l-32.6,64.9
		C885.1,385.1,886.8,385.9,888.5,386.7L888.5,386.7z M650,390.7l-36.1-63l31,65.6C646.6,392.5,648.3,391.6,650,390.7L650,390.7z
		 M663.5,384.3l-32.6-64.9l27.4,67.2C660,385.9,661.8,385.1,663.5,384.3L663.5,384.3z M676.5,379l-29.2-66.4l23.9,68.5
		C672.9,380.4,674.7,379.7,676.5,379L676.5,379z M938,416.7l41-60l-45.6,56.6C935,414.4,936.5,415.5,938,416.7L938,416.7z
		 M637.7,397.4l-39.3-61l34.4,64C634.4,399.4,636,398.4,637.7,397.4L637.7,397.4z M690.6,374l-25.5-67.9l20.1,69.7
		C687,375.2,688.8,374.6,690.6,374L690.6,374z M732.5,364.3L718,293.1l8.8,72C728.7,364.9,730.6,364.5,732.5,364.3L732.5,364.3z
		 M761.3,361.5l-6.9-72.3l1.1,72.6C757.5,361.7,759.4,361.6,761.3,361.5L761.3,361.5z M747.3,362.5l-10.6-71.8l4.9,72.4
		C743.5,362.8,745.4,362.6,747.3,362.5L747.3,362.5z M718.7,366.7l-18.1-70.3l12.5,71.5C714.9,367.5,716.8,367.1,718.7,366.7
		L718.7,366.7z M704.1,370.1l-22-69.2l16.4,70.7C700.4,371.1,702.3,370.6,704.1,370.1L704.1,370.1z M776.3,361.2l-2.9-72.6
		l-2.9,72.6c1,0,1.9,0,2.9,0C774.4,361.2,775.3,361.2,776.3,361.2L776.3,361.2z M949,425.5l44.1-57.8l-48.5,54.2
		C946.1,423,947.5,424.2,949,425.5L949,425.5z M1037,565.6c0.5,1.9,0.9,3.7,1.4,5.6l69.9-20.2L1037,565.6L1037,565.6z M1045.4,628.6
		l72.7-4.9l-72.9-0.8C1045.3,624.8,1045.3,626.7,1045.4,628.6L1045.4,628.6z M1045.2,643.6l72.9-0.9l-72.7-4.8
		C1045.3,639.7,1045.3,641.7,1045.2,643.6L1045.2,643.6z M1040.2,580.2c0.4,1.9,0.7,3.8,1.1,5.7l70.9-16.3L1040.2,580.2
		L1040.2,580.2z M1043.4,599.7l71.7-12.6l-72.5,6.9C1042.9,595.9,1043.1,597.8,1043.4,599.7L1043.4,599.7z M1044.8,614.6l72.3-8.7
		l-72.8,2.9C1044.5,610.8,1044.7,612.7,1044.8,614.6L1044.8,614.6z M502.1,652.8l-72.3,8.8l72.8-3.1
		C502.4,656.6,502.2,654.7,502.1,652.8L502.1,652.8z M503.5,666.7l-71.8,12.5l72.5-6.8C504,670.5,503.7,668.6,503.5,666.7
		L503.5,666.7z M1042.6,672.4l72.5,6.8l-71.8-12.5C1043.1,668.6,1042.9,670.5,1042.6,672.4L1042.6,672.4z M1044.3,657.6l72.8,2.8
		l-72.4-8.6C1044.6,653.7,1044.5,655.6,1044.3,657.6L1044.3,657.6z M501.7,682.4c1.4-0.2,2.7-0.3,4.1-0.5c0-0.1-0.1-0.3-0.1-0.4
		L501.7,682.4L501.7,682.4z M980.1,456.4l52.8-50l-56.6,45.7C977.6,453.5,978.9,454.9,980.1,456.4L980.1,456.4z M997.8,479.4
		l57.8-44.1l-61.1,39.4C995.6,476.2,996.7,477.8,997.8,479.4L997.8,479.4z M989,467.3l55.3-47.2l-58.9,42.7
		C986.6,464.3,987.8,465.8,989,467.3L989,467.3z M624.9,405.3l-42.6-58.8l37.8,62C621.7,407.4,623.3,406.3,624.9,405.3L624.9,405.3z
		 M970.1,445.3l50-52.8l-54,48.7C967.4,442.6,968.8,443.9,970.1,445.3L970.1,445.3z M960.1,435.4l47.2-55.3l-51.4,51.4
		C957.3,432.8,958.7,434.1,960.1,435.4L960.1,435.4z M1016.7,511.4c0.9,1.7,1.7,3.4,2.5,5.2l64-34.5L1016.7,511.4L1016.7,511.4z
		 M1023,525c0.8,1.8,1.5,3.5,2.2,5.3l65.8-30.9L1023,525L1023,525z M1028.3,538c0.7,1.8,1.3,3.6,2,5.4l67.3-27.5L1028.3,538
		L1028.3,538z M1033.1,552.1c0.6,1.8,1.1,3.7,1.6,5.5l68.7-23.7L1033.1,552.1L1033.1,552.1z M1005.4,491.1l60-41.1l-63,36.2
		C1003.4,487.9,1004.4,489.5,1005.4,491.1L1005.4,491.1z M1010.1,499.1c0.9,1.7,1.9,3.3,2.8,5l62.1-37.7L1010.1,499.1L1010.1,499.1z
		 M799.9,903.9l10.8,72.3l-5-72.9C803.7,903.5,801.8,903.7,799.9,903.9L799.9,903.9z M737.4,976.3l10.5-72.3
		c-1.9-0.2-3.8-0.4-5.7-0.6L737.4,976.3L737.4,976.3z M755.1,977.7l6.8-72.8c-1.9-0.1-3.9-0.2-5.8-0.3L755.1,977.7L755.1,977.7z
		 M785,905l6.8,72.8l-1-73.1C788.8,904.8,786.9,904.9,785,905L785,905z M813.8,902.2l14.5,71.6l-8.8-72.5
		C817.6,901.6,815.7,901.9,813.8,902.2L813.8,902.2z M771,905.2l3,73.1l2.8-73.1c-1.1,0-2.2,0-3.4,0
		C772.6,905.2,771.8,905.2,771,905.2L771,905.2z M718.6,973.8l14.5-71.6c-1.9-0.3-3.8-0.6-5.7-0.9L718.6,973.8L718.6,973.8z
		 M658.9,880l-27.4,67.7l32.7-65.3C662.4,881.6,660.6,880.8,658.9,880L658.9,880z M713.6,898.6l-12.5,72l18.1-70.8
		C717.4,899.4,715.5,899,713.6,898.6L713.6,898.6z M671.7,885.6l-23.9,69l29.3-66.9C675.3,887,673.5,886.3,671.7,885.6L671.7,885.6z
		 M685.8,890.8L665.7,961l25.5-68.4C689.4,892,687.6,891.4,685.8,890.8L685.8,890.8z M699.1,894.9L682.7,966l22-69.6
		C702.8,896,701,895.5,699.1,894.9L699.1,894.9z M896.2,876l36.2,63.4l-31.1-66.1C899.6,874.2,897.9,875.1,896.2,876L896.2,876z
		 M923.4,864.6l40.6,56.2l-33.9-55.7C927.9,864.9,925.7,864.7,923.4,864.6L923.4,864.6z M909.3,868.9l39.6,61.3l-34.7-64.3
		C912.7,866.9,911,867.9,909.3,868.9L909.3,868.9z M944.3,866.3l35.3,43.6L950,866.8C948.1,866.6,946.2,866.4,944.3,866.3
		L944.3,866.3z M992.4,871.1l15.4,15.3l-12.9-15.1C994,871.2,993.2,871.2,992.4,871.1L992.4,871.1z M966,868.3l27.5,30.6l-23.1-30.2
		C968.9,868.6,967.5,868.4,966,868.3L966,868.3z M869.7,887.7l29.3,66.9l-23.9-69C873.3,886.3,871.5,887,869.7,887.7L869.7,887.7z
		 M856.5,892.3l25.8,68.3L862,890.5C860.2,891.1,858.3,891.7,856.5,892.3L856.5,892.3z M842.2,896.4l22,69.6l-16.4-71.2
		C845.9,895.5,844,896,842.2,896.4L842.2,896.4z M828.5,899.6l18.4,70.7l-12.7-71.9C832.3,898.8,830.4,899.2,828.5,899.6
		L828.5,899.6z M645.5,873.3l-31.1,66.1l36.2-63.4C648.9,875.1,647.2,874.2,645.5,873.3L645.5,873.3z M883.5,882l32.9,65.2
		l-27.6-67.6C887.1,880.4,885.3,881.2,883.5,882L883.5,882z M633.3,866.4l-34.4,64.4l39.4-61.5C636.6,868.4,635,867.4,633.3,866.4
		L633.3,866.4z M544,487l-63.1-36l60.1,40.8C541.9,490.3,542.9,488.7,544,487L544,487z M552.4,474.7l-61.1-39.4l57.8,44.1
		C550.2,477.8,551.3,476.2,552.4,474.7L552.4,474.7z M613.4,413.2l-45.6-56.6l41,60C610.3,415.5,611.8,414.4,613.4,413.2
		L613.4,413.2z M521.6,530.3c0.7-1.8,1.5-3.5,2.2-5.3l-68-25.6L521.6,530.3L521.6,530.3z M527.2,517.4c0.8-1.7,1.7-3.5,2.5-5.2
		l-66.6-29.1L527.2,517.4L527.2,517.4z M601.6,422.4l-48.6-54l44.2,57.7C598.6,424.8,600.1,423.6,601.6,422.4L601.6,422.4z
		 M590.9,431.5l-51.4-51.4l47.2,55.3C588.1,434.1,589.5,432.8,590.9,431.5L590.9,431.5z M560.9,463.5l-59-42.5l55.4,47
		C558.5,466.5,559.7,465,560.9,463.5L560.9,463.5z M516.3,544.3c0.6-1.8,1.3-3.6,1.9-5.4L448.9,517L516.3,544.3L516.3,544.3z
		 M580.1,441.9L526,393.3l50.1,52.6C577.4,444.6,578.8,443.2,580.1,441.9L580.1,441.9z M570.5,452.1l-56.6-45.7l52.8,50
		C568,454.9,569.2,453.5,570.5,452.1L570.5,452.1z M534,504.1c0.9-1.7,1.8-3.4,2.8-5l-64.9-32.7L534,504.1L534,504.1z M576.4,868.8
		l-23,30.1l27.4-30.6C579.3,868.5,577.8,868.6,576.4,868.8L576.4,868.8z M553.6,871.2l-13.6,16l16.2-16.2
		C555.3,871.1,554.4,871.1,553.6,871.2L553.6,871.2z M512.1,557.6c0.5-1.8,1.1-3.7,1.6-5.5l-70.4-18.2L512.1,557.6L512.1,557.6z
		 M501.5,637.8l-72.7,4.8l72.9,0.9C501.5,641.7,501.5,639.7,501.5,637.8L501.5,637.8z M598.1,866.7l-29.8,43.8l35.6-44.4
		C602,866.4,600.1,866.6,598.1,866.7L598.1,866.7z M616.7,865.1l-33.8,55.7l40.5-56.2C621.1,864.8,618.9,864.9,616.7,865.1
		L616.7,865.1z M505.5,585.9c0.3-1.9,0.7-3.8,1.1-5.7l-72-10.6L505.5,585.9L505.5,585.9z M501.6,623.8l-72.8,1.1l72.7,4.7
		C501.5,627.6,501.5,625.7,501.6,623.8L501.6,623.8z M508.3,572.1c0.4-1.9,0.9-3.7,1.4-5.6l-71.3-14.3L508.3,572.1L508.3,572.1z
		 M502.5,608.9l-72.8-2.9l72.3,8.7C502.2,612.7,502.3,610.8,502.5,608.9L502.5,608.9z M504.1,595l-72.5-6.7l71.7,12.4
		C503.6,598.8,503.8,596.9,504.1,595L504.1,595z"/>
	<path fill="#742B26" d="M877.1,927.8c-73.4-6.6-149.5-7.1-220.1-1.5l-2-32.3l-1.7-27.8c73.2-5.8,152-5.3,228,1.5L877.1,927.8
		L877.1,927.8z"/>
	<path fill="#742B26" d="M660.2,863.6c-12.8-2.5-133.8,10.4-133.8,10.4l30.1,37c53-33.9,99.2-34.1,99.2-34.1L660.2,863.6
		L660.2,863.6z"/>
	<path fill="#742B26" d="M877,863.6c12.8-2.5,143.6,12,143.6,12l-40,35.4c-53-33.9-99.2-34.1-99.2-34.1L877,863.6L877,863.6z"/>
	<path fill="#DD8E33" d="M862.4,517.5c-18.8,7.4-127.6,20.3-159.3-4c28.8,9.3,83.7,5.9,104.9,3.6c36.3-4,34.1-17.4,10-24.1
		c-27.2-7.5-73.4-8.3-109.6-5.7c-48.3,3.9-75.5,14.6-75.5,26.9c3,15.2,57.4,28.7,120.7,30.7c78.5,1.4,141.9-12.6,150.9-30.6
		c6-14.4-33.2-27.6-99.6-30.3c42.3,6.9,81.5,12.8,81.5,25.1c-3,14.5-42.3,28.6-108.7,30.9c-75.5,2.3-141.9-12.8-129.8-30.8
		c6-7.9,24.1-15,57.4-18.3c-49.7,8.4-66.5,21.6-21.9,33.8C734.5,538.6,829.3,536.6,862.4,517.5L862.4,517.5z"/>
	<path fill="#FFFFFF" d="M884.2,486.9c0,0,53.4,11.9,34.1,40.5c-12.9,19.1-68.9,31.3-150,32.1c-74.9,0.7-124.2-8.4-147.4-29.5
		c-6.1-5.6-9-12.9-7.1-20.8c5.2-21.9,52.1-33.6,99.7-34.1c0,0-63.8-5.8-97,17.3c-39.5,27.5,8.9,151,43.6,164
		c5.8,2.2,13.1,7.8,15.1,4.1c32,3.3,55.6-3.4,94.2-3.8c37.7-0.3,67.3,7.8,92.9,1.6c4.3,6.1-1.1,6.2,17.3-6.6
		c19.5-13.6,54.9-77.4,58.3-116.4C941.4,493.6,884.2,486.9,884.2,486.9L884.2,486.9z"/>
	<path fill="#FFFFFF" d="M954.8,538.6c0,0,9.5-0.1,25.9-0.3c16.4-0.1,18.6,70.8-85.1,103.8c0,0,52.3-24.2,61-68.1
		c6.6-3.7,12.3-7.2,19.1-11.5l-26.3,0.3L954.8,538.6L954.8,538.6z"/>
	<path fill="#742B26" d="M921.9,344.4c-19.6-18.1-49.7-5.1-43.7-26.9c14.1-51-188.8-13.6-124.4-35.4c67.6-22.9,34.3-1.7,49.9-2.2
		c70.7-2.2,42.7-0.3,42.7-0.3c-6.6,14.6-3.5-21.6-61.8-18.7c-39.5,2-103.6,18.7-103,40.2c0.4,14.4,9.2,31.4,88.6,26.4
		c50.2-3.1,77.2,35.6,63.9,50.5c-3.8,4.3-4,6.8-12,7.6c19.9,16.9,47.7,28.7,61,20.8c17.3-10.3,3.4-25.5,3.4-25.5s20.7,23-2.9,33.8
		c-26.5,12.1-85.3-29-95.8-36.8c-5.3-2.5-10.7-10.4-16.9-14.3c-85.5-53.4-203.4-26.2-182.2,37.6c17.3,52.1,128.8,71.8,152,77
		c-2.9,0.1-5.8,0.4-8.6,0.6c-17.8,1.8-27.4,2.2-38.6,9c-25.7,15.7,65.5,30.9,111.8,21.1c46.2-9.8-49.2-17.2-68.6-16.2
		c-17,0.9-14.5-11.6,36.3-14.2c36.6-1.8,57.8,2.7,57.8,2.7s-167.3-55.2-160.9-95c4.4-27.4,60.6-1.5,60.6-1.5s-44.5-18-52.4,0.5
		c-3.4,7.8,12.5,20.6,32.5,26.9c6.5-47.6,82.1,31.8,169.5,33.9C951.9,447.9,953.7,373.8,921.9,344.4L921.9,344.4z"/>
	<path fill="#FFFFFF" d="M917,349.8c-19.6-18.1-48.8-4.9-42.8-26.7c14.1-51-184.8-19.1-120.3-41c67.6-22.9,34.3-1.7,49.9-2.2
		c70.7-2.2,66-45.8,66-45.8c-6.6,14.6-26.7,23.9-85.1,26.8c-39.5,2-103.6,18.7-103,40.2c0.4,14.4,13.5,23.5,92.9,18.6
		c50.2-3.1,78.7,42.9,65.4,57.8c-3.8,4.3-9.7,7.3-17.7,8.1c19.9,16.9,47.7,28.7,61,20.8c17.3-10.3,3.4-25.5,3.4-25.5
		s20.7,23-2.9,33.8c-26.5,12.1-85.3-29-95.8-36.8c-5.3-2.5-11-5.5-17.1-9.3C694.8,320.7,579.8,337.2,601,401
		c17.3,52.1,116.8,72.1,139.9,77.3c-2.9,0.1-5.8,0.4-8.6,0.6c-17.8,1.8-27.4,2.2-38.6,9c-25.7,15.7,65.5,30.9,111.8,21.1
		c46.2-9.8-49.2-17.2-68.6-16.2c-17,0.9-14.5-11.6,36.3-14.2c36.6-1.8,58,0.7,58,0.7s-167.5-53.2-161.1-93
		c4.4-27.4,60.6-1.5,60.6-1.5s-44.5-18-52.4,0.5c-3.4,7.8,12.5,20.6,32.5,26.9c6.5-47.6,73.7,26.1,161,28.2
		C943.5,442.2,948.7,379.1,917,349.8L917,349.8z"/>
	<path fill="#742B26" d="M357,709.4c0,0.1,15-10.5,47.6-20.9c5.5-1.7,19.3,0.4,25.8-1.2c46.7-8.8,106.7-23.9,185.9-32
		c79.1-8.1,172.2-11.5,271.1-4.9c49.4,3.3,99.4,11.5,150.5,20.7c1.9,0.3,2.9,1,4.8,1.4c30,5.6,61.1,8.9,90.7,17.5
		c2.7,0.8,7.4-1.6,10.1-0.7c16.4,5.6,33.3,13.3,46.3,20.5c0,0.1-25.1-7.8-70.1-16.7s-109.9-18.1-188.4-23.2
		c-78.4-5.2-170.4-6.7-268.6-1.7c-49.1,2.5-99.9,6.7-151.2,13.1C460.1,687.9,408.2,696.7,357,709.4L357,709.4z"/>
	<path fill="#742B26" d="M313.7,921.6c0.1,0.2,26.7-12.4,76.2-26.2c49.4-13.9,121.8-28.1,209.4-36s190.3-10.1,299.5-2.2
		c54.6,4,110.8,10.4,167.2,20.5c28.2,5,56.4,11,84.5,18.2c28,7.2,55.7,16.6,82.6,27.1c0,0.1-27.5-9.9-77.3-19.8
		c-49.7-10-121.5-20.4-208.3-26.9c-86.7-6.4-188.4-9.4-297.2-4.9c-54.4,2.3-110.5,6.5-167.2,13.9c-28.3,3.7-56.8,8.3-85.2,14.1
		C369.6,905.3,341.4,912.3,313.7,921.6L313.7,921.6z"/>
	<g>
		<path fill="#742B26" d="M523.7,720.9c0.6,3.6,0.3,7.5-0.7,11.6c-1,4.1-2.8,8.3-5.3,12.6c-2.5,4.3-5.7,8.5-9.7,12.8
			c-3.9,4.2-8.6,8.3-13.9,12.2c-5.3,3.9-11.3,7.5-18,10.9c-6.7,3.4-14,6.3-22,8.8c-2.2,6.1-4.5,12.2-6.9,18.3
			c-2.4,6.1-5,12-7.8,17.7c-2.8,5.7-5.9,11.1-9.3,16.2c-3.4,5.1-7.2,9.7-11.3,13.9c-4.2,4.2-8.8,7.8-14,10.9
			c-5.2,3.1-11,5.5-17.4,7.2c-5.3,1.4-10.6,2.1-16,2.1c-5.4,0-10.4-0.8-15-2.3c-4.6-1.5-8.7-3.9-12.2-7c-3.5-3.1-6.1-7.1-7.6-12
			c-1.7-5.3-2-10.2-1.1-14.8c1-4.6,2.9-8.7,5.7-12.4c2.9-3.7,6.4-6.8,10.7-9.4c4.3-2.6,8.8-4.5,13.7-5.9c3.7-1,7.5-1.7,11.3-2
			c3.8-0.3,7.5-0.3,11.1,0c3.6,0.3,7.1,0.9,10.3,1.8c3.3,0.9,6.2,2,8.9,3.4c-0.7,1.1-1.4,2.2-2.1,3.3c-1.8-0.9-3.9-1.7-6.2-2.3
			c-2.3-0.7-4.9-1.1-7.8-1.3c-2.9-0.2-6-0.2-9.2,0.1c-3.3,0.3-6.7,0.9-10.4,1.9c-4.2,1.1-8.1,2.9-11.7,5.2c-3.6,2.3-6.6,5.1-8.9,8.3
			c-2.4,3.2-3.9,6.7-4.8,10.6c-0.8,3.9-0.6,8,0.8,12.3c1.1,3.5,2.9,6.5,5.4,9.1c2.5,2.6,5.5,4.6,9,6c3.5,1.4,7.3,2.2,11.5,2.4
			c4.2,0.2,8.6-0.3,13.3-1.6c5.3-1.4,10.1-3.5,14.4-6.2c4.3-2.7,8.1-5.9,11.5-9.6c3.4-3.7,6.5-7.8,9.3-12.4
			c2.8-4.6,5.3-9.5,7.6-14.7c2.3-5.2,4.5-10.6,6.4-16.2c2-5.6,4-11.3,5.9-17.1c-0.9,0.2-1.7,0.4-2.6,0.6
			c-10.6,2.3-20.4,3.6-29.4,3.7c-9,0.1-16.9-0.7-23.8-2.5c-6.9-1.8-12.6-4.4-17-8c-4.4-3.6-7.4-7.9-8.8-13
			c-1.4-5.1-1.5-9.9-0.2-14.5c1.3-4.5,3.6-8.6,7-12.3c3.4-3.7,7.6-6.9,12.7-9.6c5.1-2.7,10.7-4.8,16.8-6.2c5.2-1.2,10.1-2,14.7-2.3
			c4.5-0.3,8.7-0.3,12.4,0c3.7,0.3,7,0.8,10,1.6c3,0.7,5.5,1.5,7.6,2.2c2.1,0.8,3.8,1.5,5,2.2c1.2,0.7,2.1,1.1,2.4,1.3
			c-0.9,1.1-1.9,2.1-2.8,3.2c-0.1,0-1.2-0.6-3.3-1.5c-2.1-1-5-1.9-8.8-2.9c-3.7-0.9-8.1-1.5-13.2-1.9c-5.1-0.3-10.5,0.2-16.3,1.6
			c-5.9,1.4-11.1,3.3-15.7,5.9c-4.6,2.6-8.3,5.6-11.2,8.9c-2.9,3.3-4.9,7-6,10.8c-1.1,3.9-1.1,7.8,0,11.8c1.3,4.7,3.9,8.5,8,11.6
			c4,3.1,9.1,5.3,15.1,6.7c6,1.4,12.8,2,20.4,1.9c7.6-0.2,15.6-1.2,24.1-3.1c1.5-0.3,3-0.7,4.6-1c2.1-6.2,4.2-12.4,6.3-18.5
			c2.1-6.1,4.5-12,6.9-17.7c2.5-5.6,5.2-11,8.2-16c3-5,6.3-9.4,10-13.3c3.7-3.9,7.9-7.2,12.5-9.8c4.6-2.6,9.8-4.4,15.4-5.4
			c2.3-0.4,4.7-0.5,7.1-0.3c2.4,0.2,4.6,0.7,6.6,1.7c2,1,3.8,2.4,5.2,4.3C522.3,715.4,523.2,717.9,523.7,720.9z M504.7,712.1
			c-4.2,0.7-8,2.2-11.5,4.4c-3.5,2.2-6.7,5.1-9.6,8.5c-2.9,3.4-5.6,7.4-8.1,11.8c-2.5,4.4-4.8,9.2-7,14.4
			c-2.2,5.2-4.3,10.6-6.4,16.2c-2,5.7-4.1,11.4-6.2,17.3c8.1-2.6,15.3-5.7,21.6-9.1c6.4-3.4,11.9-7,16.7-10.8
			c4.7-3.8,8.8-7.6,12.1-11.6c3.3-4,6-7.8,8-11.5c2-3.7,3.4-7.2,4.1-10.5c0.7-3.3,0.9-6.1,0.5-8.5c-0.3-1.8-0.8-3.4-1.4-4.9
			c-0.7-1.5-1.6-2.7-2.7-3.6c-1.1-1-2.5-1.7-4.1-2.1C509,711.7,507,711.7,504.7,712.1z"/>
		<path fill="#742B26" d="M566.6,775.6c1.6-2.2,3.3-4.2,5-6.1c1.8-1.9,3.6-3.6,5.4-5c1.8-1.4,3.7-2.6,5.6-3.5
			c1.9-0.9,3.7-1.4,5.5-1.6c1.4-0.2,2.8-0.1,4.3,0.2c1.4,0.3,2.7,0.8,3.9,1.5c1.2,0.8,2.2,1.8,3,3.1c0.8,1.3,1.3,2.9,1.5,4.7
			c0.3,2.7,0.2,5.4-0.3,8.2c-0.5,2.7-1.3,5.4-2.2,8c-1,2.6-2,5.2-3.2,7.7c-1.1,2.5-2.2,4.9-3.2,7.1c-1,2.3-1.8,4.4-2.3,6.4
			c-0.6,2-0.8,3.8-0.6,5.4c0.2,1.2,0.6,2.1,1.4,2.5c0.8,0.5,1.6,0.6,2.4,0.5c1.6-0.2,3.4-1.3,5.4-3.2c2-1.9,4-4.4,6.2-7.3
			c2.1-2.9,4.2-6.1,6.4-9.6c2.1-3.5,4.2-6.8,6.1-10.1c1.2,0.7,2.4,1.4,3.6,2c-0.7,1.3-1.6,2.9-2.7,5c-1.1,2.1-2.4,4.3-3.8,6.7
			c-1.4,2.4-3,4.9-4.8,7.4c-1.7,2.5-3.6,4.8-5.6,6.9c-2,2.1-4.1,3.8-6.3,5.3c-2.2,1.4-4.5,2.3-6.8,2.6c-1.3,0.2-2.6,0.1-3.8-0.1
			c-1.2-0.2-2.4-0.6-3.4-1.3c-1-0.6-1.9-1.6-2.6-2.7c-0.7-1.2-1.2-2.7-1.4-4.5c-0.3-2.5-0.2-5,0.4-7.5c0.6-2.5,1.5-5,2.6-7.5
			c1.1-2.5,2.4-5,3.8-7.5c1.4-2.5,2.7-4.9,3.8-7.4c1.2-2.4,2.1-4.8,2.8-7.2c0.7-2.4,0.9-4.8,0.6-7.2c-0.1-1.2-0.5-2.1-1.1-2.8
			c-0.6-0.6-1.6-0.9-3-0.7c-2.2,0.3-4.5,1.3-6.8,3.3c-2.3,1.9-4.6,4.4-6.9,7.4c-2.3,3-4.6,6.5-6.9,10.5c-2.3,3.9-4.5,8.1-6.7,12.4
			c-2.2,4.3-4.2,8.8-6.3,13.2c-2,4.5-3.9,8.8-5.8,12.9c-2.8-0.9-5.6-1.7-8.3-2.6c2.3-6.6,4.5-12.6,6.7-17.9c2.2-5.3,4.1-10,5.7-14.2
			c1.6-4.2,2.9-8.1,3.7-11.5c0.8-3.4,1-6.6,0.6-9.4c-0.1-0.6-0.2-1.1-0.4-1.7c-0.2-0.6-0.5-1.1-1-1.5c-0.4-0.4-1-0.7-1.6-0.9
			c-0.7-0.2-1.5-0.3-2.4-0.1c-2.2,0.3-4.3,1.5-6.2,3.6c-2,2.1-4,4.9-6,8.3c-2,3.4-4.1,7.4-6.2,11.9c-2.2,4.5-4.5,9.3-6.9,14.4
			c-2.5,5.1-5.1,10.3-8,15.7c-2.9,5.4-6.1,10.8-9.6,16c-2.3-0.9-4.7-1.8-7.1-2.7c1.4-3,3-6.3,4.6-9.6c1.6-3.4,3.2-6.8,4.8-10.3
			c1.6-3.5,3.1-6.9,4.5-10.3c1.4-3.4,2.7-6.6,3.7-9.6c1-3,1.8-5.7,2.3-8.2c0.5-2.4,0.6-4.5,0.4-6.1c-0.3-1.9-1.1-3.2-2.3-3.9
			c-1.2-0.7-2.7-0.9-4.4-0.6c-2,0.3-3.9,1.3-5.6,2.9c-1.7,1.6-3.4,3.8-5.1,6.5c-1.7,2.7-3.5,5.9-5.3,9.7c-1.8,3.7-3.9,7.8-6.2,12.3
			c-1.3-0.6-2.6-1.2-3.8-1.7c2.4-5.3,4.6-10,6.7-14.1c2-4.1,4-7.5,6-10.4c2-2.8,4.1-5.1,6.3-6.7c2.2-1.6,4.7-2.7,7.5-3.2
			c0.8-0.1,1.9-0.2,3.3-0.1c1.4,0.1,2.7,0.4,4.1,0.9c1.4,0.5,2.7,1.4,3.9,2.5c1.2,1.1,2.1,2.7,2.6,4.7c2.9-4.6,6.1-8.4,9.7-11.4
			c3.5-3,7.1-4.7,10.5-5.2c2.5-0.4,4.7-0.2,6.5,0.4c1.9,0.6,3.4,1.6,4.7,2.9c1.3,1.3,2.2,2.8,3,4.5c0.7,1.7,1.2,3.5,1.4,5.3
			c0.1,0.5,0.1,0.9,0.1,1.4C566.5,774.5,566.6,775.1,566.6,775.6z"/>
		<path fill="#742B26" d="M690.5,754c-0.8,1.5-1.8,3.5-3.2,6c-1.4,2.5-2.8,5.2-4.4,8.1c-1.6,3-3.1,6.1-4.7,9.3
			c-1.6,3.2-2.9,6.4-4.2,9.4c-1.2,3.1-2.2,6-2.9,8.7c-0.7,2.7-1,5-0.9,6.8c0.1,1.8,0.6,3,1.4,3.5c0.8,0.5,1.8,0.7,3.1,0.6
			c1.8-0.1,3.6-0.7,5.4-1.8c1.8-1.1,3.6-2.4,5.4-4.1c1.7-1.6,3.4-3.5,5.1-5.5c1.6-2,3.2-4,4.6-6.1c1.4-2,2.7-4,3.9-5.8
			c1.2-1.8,2.2-3.4,3-4.7c1.2,0.7,2.3,1.5,3.5,2.3c-1,1.9-2.2,3.9-3.5,6c-1.4,2.2-2.8,4.4-4.5,6.6c-1.6,2.2-3.4,4.4-5.3,6.4
			c-1.9,2.1-3.9,4-6,5.6c-2.1,1.7-4.3,3-6.7,4.1c-2.4,1-4.8,1.7-7.3,1.8c-3.7,0.2-6.5-0.6-8.4-2.5c-1.9-1.9-2.9-4.5-3.2-7.7
			c0-0.2,0-0.7-0.1-1.5c0-0.8,0-1.4,0.1-1.8c-2.9,3.8-5.6,7-8.2,9.5c-2.6,2.5-5.2,4.6-7.7,6.2c-2.5,1.6-4.9,2.7-7.3,3.5
			c-2.4,0.8-4.7,1.2-6.9,1.4c-2.3,0.2-4.6,0.1-6.7-0.4c-2.1-0.5-4.1-1.4-5.8-2.6c-1.7-1.2-3.1-2.7-4.2-4.6c-1.1-1.9-1.8-4.1-2.1-6.7
			c-0.3-3.2,0-7,1.2-11.3c1.2-4.3,3.5-9.1,7.2-14.3c3.1-4.5,6.4-8.3,9.9-11.5c3.5-3.2,7.1-5.8,10.6-7.8c3.5-2,6.9-3.5,10.2-4.5
			c3.3-1,6.2-1.6,8.9-1.7c5.9-0.4,10.4,0.2,13.5,1.7c3.1,1.6,5.1,4.1,5.9,7.7c1.2-1.5,2.5-3,3.8-4.5c1.3-1.5,2.7-3,4.1-4.6
			C688.4,753.3,689.5,753.7,690.5,754z M663.3,788.1c0.7-1.2,1.6-2.8,2.7-4.8c1.1-1.9,2.2-3.9,3.4-6c1.2-2,2.4-4,3.5-5.9
			c1.2-1.9,2.2-3.5,3-4.8c0-0.5-0.2-1.3-0.4-2.5c-0.2-1.1-0.7-2.3-1.5-3.4c-0.8-1.1-2-2.1-3.5-2.8c-1.6-0.8-3.8-1.1-6.5-0.9
			c-2,0.1-4.2,0.6-6.6,1.3c-2.4,0.7-5,1.8-7.7,3.3c-2.7,1.5-5.4,3.4-8.1,5.7c-2.8,2.3-5.4,5.2-8.1,8.6c-3.9,5.1-6.8,10.1-8.7,15.1
			c-1.9,5-2.6,9.3-2.2,13.1c0.3,3.2,1.4,5.6,3.2,7.3c1.8,1.6,4.1,2.3,7.1,2c3.4-0.3,6.5-1.3,9.3-2.9c2.8-1.6,5.5-3.7,7.9-6.1
			c2.4-2.4,4.7-5.1,6.9-7.9C659.1,793.7,661.2,790.9,663.3,788.1z"/>
		<path fill="#742B26" d="M761.9,779.6c-0.9,1.3-2.1,3-3.3,5.1c-1.3,2.1-2.8,4.5-4.4,6.9c-1.7,2.5-3.5,5-5.5,7.6
			c-2,2.6-4.2,4.9-6.5,7c-2.3,2.1-4.9,3.8-7.6,5.2c-2.7,1.4-5.7,2.1-8.8,2.2c-1.7,0-3.4-0.2-4.9-0.6c-1.6-0.4-2.9-1.1-4.1-2.1
			c-1.2-1-2.2-2.2-2.9-3.7c-0.7-1.5-1.1-3.3-1.2-5.3c-0.1-2.8,0.4-5.7,1.5-8.8c1.1-3.1,2.4-6.1,4-9c1.5-2.9,3.1-5.6,4.7-8
			c1.6-2.4,2.7-4.3,3.4-5.8c0.7-1.4,1.1-2.7,1-3.7c0-0.7-0.3-1.4-0.9-1.9c-0.6-0.6-1.2-1.1-2-1.6c-0.8-0.5-1.7-1.1-2.5-1.6
			c-0.9-0.6-1.6-1.3-2.2-2.1c-1.5,2.3-3.1,4.7-4.7,7.1c-1.4,2-2.9,4.3-4.5,6.9c-1.6,2.5-3.2,5-4.6,7.5c-1.2-0.8-2.3-1.5-3.5-2.3
			c6.3-9.8,12.8-19.6,19.4-29.3c0.9,0.4,1.9,0.8,2.8,1.2c-0.1,0.3-0.3,0.9-0.6,1.6c-0.3,0.7-0.4,1.5-0.4,2.4c0,0.6,0.1,1.2,0.4,1.8
			c0.2,0.6,0.7,1.1,1.4,1.6c2.6,2,4.7,3.5,6.1,4.6c1.5,1.1,2.6,1.9,3.3,2.6c0.7,0.6,1.1,1.2,1.3,1.6c0.2,0.4,0.3,1,0.3,1.7
			c0,0.7-0.1,1.5-0.3,2.5c-0.2,1-0.6,2.1-1.2,3.5c-0.6,1.4-1.4,3-2.4,4.9c-1,1.9-2.3,4.1-3.8,6.5c-0.9,1.5-1.8,3-2.7,4.6
			c-0.9,1.5-1.6,3.1-2.3,4.6c-0.7,1.6-1.2,3.1-1.6,4.7c-0.4,1.5-0.6,3-0.5,4.5c0,1.1,0.2,1.9,0.6,2.6c0.4,0.6,0.8,1.1,1.4,1.5
			c0.6,0.3,1.2,0.5,1.8,0.6c0.7,0.1,1.3,0.1,1.9,0.1c2-0.1,4-0.7,6-1.8c2-1.2,3.9-2.6,5.9-4.4c1.9-1.8,3.8-3.8,5.6-6.1
			c1.8-2.3,3.5-4.6,5.2-6.9c1.7-2.4,3.2-4.6,4.6-6.7c1.4-2.1,2.7-4,3.8-5.6C759.5,778,760.7,778.8,761.9,779.6z"/>
		<path fill="#742B26" d="M777.9,738.6c0.7-1,1.8-2.6,3.5-5c1.7-2.4,3.7-5,6-7.9c2.3-2.9,4.8-5.7,7.5-8.6c2.7-2.9,5.4-5.3,8-7.3
			c1.5,0.8,2.9,1.6,4.4,2.4c-2.9,4-5.9,8.2-9,12.6c-3,4.5-6,9.1-9,13.9c10.5,0.2,21.1,0.5,31.6,0.8c-0.7,1.5-1.4,2.9-2.1,4.4
			c-10.7-0.4-21.5-0.7-32.2-0.8c-3,5.1-5.8,10.1-8.3,15.2c-2.6,5-4.8,9.9-6.7,14.5c-1.9,4.6-3.4,8.9-4.5,12.9
			c-1.1,4-1.6,7.5-1.6,10.5c0,3.7,0.9,6.4,2.8,8c1.9,1.6,4.1,2.4,6.8,2.5c2.4,0,4.9-0.6,7.4-1.9c2.6-1.3,5.1-3,7.6-5
			c2.5-2,4.9-4.2,7.1-6.6c2.3-2.4,4.3-4.7,6.1-6.8c1.8-2.1,3.3-4,4.4-5.6c1.2-1.6,1.9-2.6,2.2-3c1.1,0.8,2.3,1.7,3.4,2.5
			c-2.3,3.2-4.9,6.7-7.8,10.3c-2.9,3.6-6,7-9.4,10.1c-3.4,3.1-7,5.6-11,7.7c-3.9,2-8.1,3-12.6,3c-2.8,0-5.2-0.5-7.2-1.4
			c-2.1-0.9-3.8-2.2-5.2-3.8c-1.4-1.6-2.5-3.5-3.2-5.8c-0.7-2.2-1.1-4.6-1.1-7.3c0-1.7,0.3-4.1,0.8-7.3c0.6-3.1,1.6-6.9,3-11.2
			c1.4-4.3,3.4-9.1,5.8-14.5c2.5-5.4,5.6-11.1,9.5-17.2c-5.4,0-10.7,0-16.1,0c0.6-1.5,1.3-3,1.9-4.4
			C766.6,738.6,772.2,738.6,777.9,738.6z"/>
		<path fill="#742B26" d="M931.5,760.5c0.8,0.8,2,1.6,3.5,2.6c1.5,1,3.5,1.9,5.7,2.8c2.3,0.9,4.9,1.5,7.9,1.9
			c5,0.6,9.9,0.4,14.6-0.7c4.7-1.1,9.1-2.8,13.4-5c4.2-2.2,8.1-4.9,11.7-8c3.6-3.1,6.8-6.3,9.5-9.7c2.7-3.4,5-6.8,6.7-10.2
			c1.7-3.4,2.9-6.6,3.3-9.4c0.5-3.4,0.4-6.5-0.4-9.2c-0.8-2.7-2.1-5-3.9-7c-1.8-1.9-4-3.5-6.6-4.7c-2.7-1.2-5.6-2-8.8-2.5
			c-6.3-0.9-12.8-0.8-19.2,0.3c-6.5,1.1-12.8,2.9-19.1,5.5c-6.2,2.6-12.3,5.8-18.1,9.7c-5.8,3.9-11.3,8.1-16.3,12.8
			c-5.1,4.7-9.7,9.6-13.9,14.8c-4.2,5.2-7.8,10.4-10.9,15.7c-3.1,5.2-5.5,10.4-7.3,15.4c-1.8,5-2.9,9.7-3.2,14
			c-0.4,5,0,9.8,1.2,14.3c1.2,4.6,3.3,8.6,6.1,12.2c2.8,3.6,6.5,6.5,11,8.8c4.5,2.3,9.8,3.8,16.1,4.5c5.5,0.6,11.4,0.4,17.6-0.5
			c6.2-0.9,12.5-2.7,18.9-5.4c6.5-2.7,13-6.5,19.7-11.2c6.7-4.7,13.4-10.6,20.1-17.7c1,1,2,1.9,3,2.9c-7.3,7.7-14.5,14-21.7,19
			c-7.2,5-14.1,8.8-20.8,11.6c-6.7,2.8-13.2,4.6-19.4,5.5c-6.2,0.9-12,1-17.4,0.4c-7.8-0.8-14.5-2.8-20.2-5.9
			c-5.7-3.1-10.5-6.9-14.2-11.4c-3.7-4.5-6.4-9.5-8.1-15.1c-1.7-5.5-2.3-11.1-1.9-16.6c0.4-4.8,1.5-9.8,3.4-15.1
			c1.9-5.3,4.4-10.6,7.6-16c3.2-5.4,7-10.7,11.4-15.9c4.4-5.2,9.3-10.2,14.6-14.8c5.4-4.6,11.1-8.8,17.3-12.6
			c6.2-3.8,12.7-6.9,19.4-9.4c6.7-2.5,13.6-4.2,20.6-5.2c7-1,14.1-1,21.1,0c4.4,0.6,8.6,1.8,12.5,3.4c3.9,1.6,7.2,3.8,9.9,6.6
			c2.7,2.7,4.7,6,5.9,9.8c1.2,3.8,1.4,8.2,0.6,13.1c-0.5,3.3-1.7,6.8-3.5,10.5c-1.8,3.7-4.1,7.3-7,10.9c-2.9,3.6-6.2,6.9-9.9,10.1
			c-3.7,3.2-7.8,5.9-12.2,8.1c-4.4,2.2-9.1,3.8-14.2,4.9c-5,1-10.2,1.2-15.6,0.6c-5.8-0.7-10.7-2.2-14.8-4.4
			c-4.1-2.2-7.5-4.8-10.3-7.6c1.1-0.8,2.1-1.7,3.2-2.5C930.2,759.4,930.7,759.8,931.5,760.5z"/>
		<path fill="#742B26" d="M1070.8,783.3c-1.1,1.3-2.7,2.9-4.7,5c-2,2-4.1,4.3-6.4,6.8c-2.3,2.5-4.6,5.1-7,7.8
			c-2.3,2.7-4.5,5.4-6.5,8.1c-2,2.7-3.7,5.2-5.1,7.6c-1.4,2.4-2.3,4.5-2.7,6.3c-0.4,1.8-0.2,3,0.5,3.7c0.7,0.7,1.6,1.1,2.8,1.4
			c1.8,0.3,3.7,0.2,5.8-0.4c2.1-0.6,4.2-1.4,6.3-2.6c2.1-1.1,4.3-2.5,6.4-4c2.1-1.5,4.2-3.1,6.1-4.7c1.9-1.6,3.7-3.2,5.4-4.7
			c1.6-1.5,3-2.8,4.2-3.8c1,1,1.9,2,2.9,3.1c-1.5,1.6-3.1,3.2-5,5c-1.9,1.8-3.9,3.5-6.1,5.2c-2.2,1.7-4.4,3.4-6.8,4.9
			c-2.4,1.6-4.8,2.9-7.3,3.9c-2.5,1.1-5,1.8-7.6,2.2c-2.6,0.4-5.1,0.4-7.6-0.1c-3.7-0.7-6.2-2.2-7.5-4.5c-1.3-2.3-1.7-5.1-1.1-8.3
			c0-0.2,0.2-0.7,0.3-1.5c0.2-0.8,0.4-1.3,0.6-1.8c-3.8,3-7.3,5.4-10.5,7.2c-3.2,1.8-6.3,3.2-9.1,4.1c-2.8,0.9-5.5,1.4-8,1.6
			c-2.5,0.1-4.9,0-7.1-0.3c-2.3-0.4-4.5-1.1-6.4-2.1c-1.9-1-3.6-2.3-4.9-3.9c-1.4-1.6-2.3-3.4-2.9-5.5c-0.6-2.1-0.7-4.5-0.3-7
			c0.5-3.2,1.9-6.8,4.1-10.7c2.2-3.9,5.8-7.9,10.6-12.1c4.1-3.6,8.3-6.4,12.6-8.6c4.2-2.2,8.4-3.8,12.3-4.9c4-1.1,7.7-1.7,11.1-1.8
			c3.5-0.1,6.5,0,9.1,0.5c5.9,1.1,10.1,2.8,12.8,5.1c2.7,2.3,3.9,5.3,3.9,8.9c1.6-1.1,3.2-2.3,4.9-3.4c1.7-1.1,3.4-2.3,5.2-3.4
			C1068.9,782.1,1069.9,782.7,1070.8,783.3z M1035.4,809.5c1-1,2.3-2.3,3.9-3.9c1.5-1.6,3.2-3.2,4.9-4.9c1.7-1.7,3.4-3.3,5-4.8
			c1.6-1.5,3-2.8,4.2-3.9c0.1-0.5,0.2-1.3,0.3-2.5c0.1-1.1-0.1-2.4-0.6-3.6c-0.5-1.3-1.4-2.5-2.7-3.6c-1.4-1.1-3.4-2-6.1-2.5
			c-2-0.4-4.2-0.5-6.8-0.4c-2.6,0.1-5.3,0.5-8.3,1.3c-3,0.8-6.1,1.9-9.4,3.5c-3.3,1.6-6.6,3.7-10.1,6.3c-5.1,3.9-9.3,8.1-12.4,12.4
			c-3.1,4.3-5,8.4-5.6,12.2c-0.5,3.2-0.1,5.8,1.2,7.8c1.3,2,3.4,3.2,6.4,3.7c3.4,0.5,6.7,0.4,9.8-0.5c3.2-0.9,6.3-2.2,9.3-3.9
			c3-1.7,5.9-3.7,8.8-6C1029.8,813.9,1032.6,811.7,1035.4,809.5z"/>
		<path fill="#742B26" d="M1071.3,835.3c1.7,1.8,4.1,3.1,7.3,3.8c3.5,0.8,6.9,1,10.2,0.7c3.3-0.3,6.5-1,9.6-2c3.1-1,6-2.2,8.8-3.7
			c2.8-1.5,5.3-3,7.7-4.5c2.3-1.6,4.4-3.1,6.3-4.5c1.9-1.5,3.4-2.7,4.6-3.7c1.7,0.4,3.5,0.9,5.2,1.3c-1.2,1.1-2.9,2.5-4.9,4.2
			c-2.1,1.7-4.4,3.4-7.1,5.3c-2.7,1.8-5.6,3.6-8.8,5.3c-3.2,1.7-6.5,3.2-10.1,4.3c-3.6,1.2-7.2,1.9-11,2.3
			c-3.8,0.4-7.6,0.2-11.5-0.7c-1.7-0.4-3.3-0.9-4.9-1.6c-1.5-0.7-3-1.6-4.3-2.7c-3,4.1-6,8.1-8.8,12.1c-2.9,4-5.6,7.7-8.1,11.3
			c-2.6,3.6-4.9,6.8-7,9.8c-2.1,3-4,5.6-5.6,7.8c-1.6,2.2-2.8,4-3.7,5.3c-0.9,1.3-1.4,2-1.4,2c-2.8-2.1-5.6-4.1-8.4-6.1
			c4.4-6.1,8.3-11.8,11.9-16.9c3.6-5.1,6.9-9.9,10-14.3c3.1-4.4,6.1-8.6,8.8-12.5c2.8-3.9,5.6-7.6,8.3-11.3
			c-0.7-1.5-1.2-2.9-1.4-4.2c-0.2-1.3-0.3-2.4-0.2-3.2c0.2-1.3,0.8-2.3,1.9-3c1.1-0.7,2.3-0.9,3.8-0.6c1.2,0.2,2.2,0.8,3,1.8
			c2.7-3.6,5.2-6.8,7.3-9.5c2.1-2.7,4-5,5.4-6.8c1.7-2.1,3.2-4,4.4-5.6c8.1-10.2,15.5-18.9,22.3-26.1c6.8-7.2,12.9-13.2,18.5-18
			c5.5-4.8,10.5-8.6,14.8-11.3c4.3-2.7,8.2-4.7,11.5-6c3.3-1.3,6.2-2,8.7-2.1c2.4-0.1,4.6,0.1,6.4,0.5c2.9,0.8,5.3,2,7,3.6
			c1.7,1.6,2.4,3.7,1.9,6.4c-0.4,2.6-1.9,5.6-4.3,9.1c-2.4,3.5-5.4,7.1-8.8,10.8c-3.5,3.7-7.3,7.4-11.5,11
			c-4.2,3.6-8.4,6.9-12.5,9.8c-7.8,5.5-14.6,9.9-20.5,13.4c-5.9,3.4-11,6.2-15.3,8.2c-4.3,2-7.7,3.4-10.4,4.2
			c-2.7,0.8-4.7,1.4-5.9,1.6C1084.1,818.7,1077.7,827,1071.3,835.3z M1173.4,741.8c0.2-1,0.2-1.8-0.1-2.6c-0.2-0.8-1-1.4-2.4-1.7
			c-0.8-0.2-1.9-0.3-3.2-0.3c-1.3,0-3,0.2-4.9,0.8c-1.9,0.6-4.2,1.5-6.8,2.9c-2.6,1.4-5.6,3.4-9.1,6c-3.4,2.6-7.3,6-11.5,10
			c-4.2,4.1-8.9,9.1-14,15.1c-3.3,3.8-7.2,8.4-11.6,13.9c-4.4,5.5-9.2,11.5-14.3,17.9c3.4-1.2,7-2.8,10.9-4.8
			c3.9-2,7.9-4.2,12.1-6.7c4.1-2.5,8.3-5.2,12.5-8.1c4.2-2.9,8.3-5.9,12.2-9c3.9-3.1,7.7-6.2,11.2-9.3c3.5-3.1,6.6-6.1,9.3-9
			c2.7-2.9,4.9-5.7,6.6-8.3C1172,746.2,1173,743.9,1173.4,741.8z"/>
		<path fill="#742B26" d="M1129.8,835.1c-0.3,0.6-0.6,1.3-0.8,1.9c-0.2,0.6-0.4,1.3-0.6,2c-0.5,2-0.7,4-0.5,5.9
			c0.2,2,0.7,3.8,1.6,5.4c0.9,1.7,2.2,3.1,3.8,4.4c1.6,1.3,3.7,2.2,6,2.8c8,2.1,16.3,1.7,25.2-1c8.9-2.8,18.7-8.3,29.5-16.6
			c0.8,1.1,1.6,2.3,2.4,3.4c-6,4.8-11.7,8.6-17.1,11.5c-5.4,2.9-10.6,5.1-15.4,6.5c-4.9,1.4-9.4,2.2-13.7,2.3
			c-4.3,0.1-8.2-0.3-11.8-1.3c-2.6-0.7-5.3-1.7-8-3.1c-2.7-1.4-5.1-3.2-7.2-5.4c-2.1-2.2-3.6-4.7-4.5-7.7c-0.9-3-0.9-6.4,0.1-10.3
			c1.1-4.1,2.9-7.9,5.5-11.4c2.6-3.4,5.6-6.5,9-9.2c3.4-2.7,7.2-4.9,11.3-6.8c4.1-1.9,8.1-3.3,12.1-4.3c4-1,7.8-1.6,11.4-1.8
			c3.6-0.2,6.7,0.1,9.2,0.8c1.7,0.5,3.3,1.1,4.9,2.1c1.6,0.9,2.9,2,4,3.4c1.1,1.3,1.8,2.9,2.2,4.6c0.4,1.8,0.3,3.7-0.4,5.9
			c-0.9,2.9-2.5,5.4-4.8,7.5c-2.3,2.1-5,3.9-8.2,5.3c-3.2,1.4-6.7,2.6-10.6,3.4c-3.8,0.8-7.8,1.3-11.8,1.6c-4,0.2-7.9,0.2-11.8,0
			C1136.8,836.4,1133.2,835.9,1129.8,835.1z M1131.5,831.8c4.2,0.7,8.4,0.9,12.3,0.7c4-0.2,7.7-0.7,11.2-1.6
			c3.5-0.9,6.8-1.9,9.7-3.3c3-1.3,5.6-2.8,7.8-4.3c2.2-1.6,4-3.2,5.5-4.8c1.4-1.6,2.4-3.2,2.8-4.6c0.4-1.5,0.3-2.8-0.3-3.9
			c-0.7-1.1-1.6-1.9-2.9-2.2c-2.8-0.8-6.2-0.8-10.1,0c-4,0.8-8.1,2.2-12.4,4.4c-4.3,2.1-8.5,4.9-12.7,8.2
			C1138.3,823.7,1134.6,827.5,1131.5,831.8z"/>
	</g>
</g>
<g id="Layer_2">
	<text transform="matrix(0.583 0 0 0.583 678.7002 901.2637)" fill="#FFFFFF" font-family="'Mistral'" font-size="79px">C</text>
	<text transform="matrix(0.583 0 0 0.583 701.042 901.2637)" fill="#FFFFFF" font-family="'Mistral'" font-size="79px">o</text>
	<text transform="matrix(0.583 0 0 0.583 717.7617 901.2637)" fill="#FFFFFF" font-family="'Mistral'" font-size="79px">f</text>
	<text transform="matrix(0.583 0 0 0.583 729.085 901.2637)" fill="#FFFFFF" font-family="'Mistral'" font-size="79px">f</text>
	<text transform="matrix(0.583 0 0 0.583 740.4077 901.2637)" fill="#FFFFFF" font-family="'Mistral'" font-size="79px">e</text>
	<text transform="matrix(0.583 0 0 0.583 752.1802 901.2637)" fill="#FFFFFF" font-family="'Mistral'" font-size="79px">e</text>
	<text transform="matrix(0.583 0 0 0.583 763.9526 901.2637)" fill="#FFFFFF" font-family="'Mistral'" font-size="79px"> </text>
	<text transform="matrix(0.583 0 0 0.583 775.9277 901.2637)" fill="#FFFFFF" font-family="'Mistral'" font-size="79px">&amp;</text>
	<text transform="matrix(0.583 0 0 0.583 803.9141 901.2637)" fill="#FFFFFF" font-family="'Mistral'" font-size="79px"> </text>
	<text transform="matrix(0.583 0 0 0.583 815.8896 901.2637)" fill="#FFFFFF" font-family="'Mistral'" font-size="79px">T</text>
	<text transform="matrix(0.583 0 0 0.583 829.1455 901.2637)" fill="#FFFFFF" font-family="'Mistral'" font-size="79px">e</text>
	<text transform="matrix(0.583 0 0 0.583 840.918 901.2637)" fill="#FFFFFF" font-family="'Mistral'" font-size="79px">a</text>
</g>
</svg>
